# Blender v2.79 (sub 0) OBJ File: ''
# www.blender.org
o Cube.002
v -8.100000 -3.097809 2.600000
v -8.100000 -2.997809 2.600000
v -8.100000 -3.097809 -2.600000
v -8.100000 -2.997809 -2.600000
v 8.100000 -3.097809 2.600000
v 8.100000 -2.997809 2.600000
v 8.100000 -3.097809 -2.600000
v 8.100000 -2.997809 -2.600000
vn -1.0000 0.0000 0.0000
vn 0.0000 0.0000 -1.0000
vn 1.0000 0.0000 0.0000
vn 0.0000 0.0000 1.0000
vn 0.0000 -1.0000 0.0000
vn 0.0000 1.0000 0.0000
usemtl None
s off
f 1//1 2//1 4//1 3//1
f 3//2 4//2 8//2 7//2
f 7//3 8//3 6//3 5//3
f 5//4 6//4 2//4 1//4
f 3//5 7//5 5//5 1//5
f 8//6 4//6 2//6 6//6
o Cube.001
v -8.100000 2.953156 2.600000
v -8.100000 3.053155 2.600000
v -8.100000 2.953156 -2.600000
v -8.100000 3.053155 -2.600000
v 8.100000 2.953156 2.600000
v 8.100000 3.053155 2.600000
v 8.100000 2.953156 -2.600000
v 8.100000 3.053155 -2.600000
vn -1.0000 0.0000 0.0000
vn 0.0000 0.0000 -1.0000
vn 1.0000 0.0000 0.0000
vn 0.0000 0.0000 1.0000
vn 0.0000 -1.0000 0.0000
vn 0.0000 1.0000 0.0000
usemtl None
s off
f 9//7 10//7 12//7 11//7
f 11//8 12//8 16//8 15//8
f 15//9 16//9 14//9 13//9
f 13//10 14//10 10//10 9//10
f 11//11 15//11 13//11 9//11
f 16//12 12//12 10//12 14//12
o Cube
v 7.999996 -3.000000 -2.499999
v 7.999996 -3.000000 2.499999
v -7.999997 -3.000000 2.499998
v -7.999993 -3.000000 -2.500000
v 8.000000 3.000000 -2.499997
v 7.999991 3.000000 2.500000
v -7.999999 3.000000 2.499998
v -7.999996 3.000000 -2.499999
vn 0.0000 -1.0000 0.0000
vn 0.0000 1.0000 0.0000
vn 1.0000 0.0000 0.0000
vn -0.0000 -0.0000 1.0000
vn -1.0000 -0.0000 -0.0000
vn 0.0000 0.0000 -1.0000
usemtl Material
s off
f 17//13 18//13 19//13 20//13
f 21//14 24//14 23//14 22//14
f 17//15 21//15 22//15 18//15
f 18//16 22//16 23//16 19//16
f 19//17 23//17 24//17 20//17
f 21//18 17//18 20//18 24//18
